<?xml version="1.0" encoding="UTF-8" standalone="no"?><svg xmlns="http://www.w3.org/2000/svg" xmlns:xlink="http://www.w3.org/1999/xlink" contentScriptType="application/ecmascript" contentStyleType="text/css" height="370px" preserveAspectRatio="none" style="width:349px;height:370px;" version="1.1" viewBox="0 0 349 370" width="349px" zoomAndPan="magnify"><defs><filter height="300%" id="fi7kvp2oa7xnl" width="300%" x="-1" y="-1"><feGaussianBlur result="blurOut" stdDeviation="2.0"/><feColorMatrix in="blurOut" result="blurOut2" type="matrix" values="0 0 0 0 0 0 0 0 0 0 0 0 0 0 0 0 0 0 .4 0"/><feOffset dx="4.0" dy="4.0" in="blurOut2" result="blurOut3"/><feBlend in="SourceGraphic" in2="blurOut3" mode="normal"/></filter></defs><g><!--MD5=[52bd4819656a6938484a4a042299c7b0]
cluster GitHub--><rect fill="#90EE90" filter="url(#fi7kvp2oa7xnl)" height="351.5" style="stroke:#000000;stroke-width:1.5;" width="152" x="185" y="7"/><text fill="#000000" font-family="sans-serif" font-size="14" font-weight="bold" lengthAdjust="spacing" textLength="49" x="236.5" y="23.9659">GitHub</text><!--MD5=[66f9f88c9fb598cb139af963a53d9228]
entity actions--><rect fill="#FEFECE" filter="url(#fi7kvp2oa7xnl)" height="58.1358" style="stroke:#000000;stroke-width:1.5;" width="120" x="201" y="45"/><text fill="#000000" font-family="sans-serif" font-size="14" lengthAdjust="spacing" textLength="100" x="211" y="69.9659">GitHub Actions</text><text fill="#000000" font-family="sans-serif" font-size="14" lengthAdjust="spacing" textLength="83" x="211" y="89.0339">(Hugo build)</text><!--MD5=[d6771314d407fed3ccc7dbfd0946994b]
entity deploy--><rect fill="#FEFECE" filter="url(#fi7kvp2oa7xnl)" height="58.1358" style="stroke:#000000;stroke-width:1.5;" width="120" x="201" y="163"/><text fill="#000000" font-family="sans-serif" font-size="14" lengthAdjust="spacing" textLength="100" x="211" y="187.9659">GitHub Actions</text><text fill="#000000" font-family="sans-serif" font-size="14" lengthAdjust="spacing" textLength="53" x="211" y="207.0339">(deploy)</text><!--MD5=[85f4d1a33338ddce045f9b827d37a273]
entity pages--><rect fill="#FEFECE" filter="url(#fi7kvp2oa7xnl)" height="35.0679" style="stroke:#000000;stroke-width:1.5;" width="107" x="208.5" y="307.5"/><rect fill="#FEFECE" height="35.0679" style="stroke:#000000;stroke-width:1.5;" width="107" x="204.5" y="303.5"/><text fill="#000000" font-family="sans-serif" font-size="14" lengthAdjust="spacing" textLength="91" x="212.5" y="326.4659">GitHub Pages</text><!--MD5=[384f80ccc722d85addd66067e6ef3104]
entity commit--><rect fill="#FEFECE" filter="url(#fi7kvp2oa7xnl)" height="58.1358" style="stroke:#000000;stroke-width:1.5;" width="70" x="7" y="45"/><text fill="#000000" font-family="sans-serif" font-size="14" lengthAdjust="spacing" textLength="18" x="17" y="69.9659">git</text><text fill="#000000" font-family="sans-serif" font-size="14" lengthAdjust="spacing" textLength="50" x="17" y="89.0339">commit</text><!--MD5=[0cc68753d5e3924938a71c36d5e43312]
entity push--><rect fill="#FEFECE" filter="url(#fi7kvp2oa7xnl)" height="58.1358" style="stroke:#000000;stroke-width:1.5;" width="54" x="112" y="45"/><text fill="#000000" font-family="sans-serif" font-size="14" lengthAdjust="spacing" textLength="18" x="122" y="69.9659">git</text><text fill="#000000" font-family="sans-serif" font-size="14" lengthAdjust="spacing" textLength="34" x="122" y="89.0339">push</text><!--MD5=[83f3716f0f3dae5fc5c04e4926f35238]
entity bezoeker--><ellipse cx="138" cy="290.5" fill="#FEFECE" filter="url(#fi7kvp2oa7xnl)" rx="8" ry="8" style="stroke:#A80036;stroke-width:1.5;"/><path d="M138,298.5 L138,325.5 M125,306.5 L151,306.5 M138,325.5 L125,340.5 M138,325.5 L151,340.5 " fill="none" filter="url(#fi7kvp2oa7xnl)" style="stroke:#A80036;stroke-width:1.5;"/><text fill="#000000" font-family="sans-serif" font-size="14" lengthAdjust="spacing" textLength="61" x="107.5" y="360.9659">bezoeker</text><!--MD5=[56b3595ae6c1aa8603cc06fb741046f6]
link commit to push--><path d="M77.24,74 C87.1,74 96.96,74 106.82,74 " fill="none" id="commit-to-push" style="stroke:#A80036;stroke-width:1.0;"/><polygon fill="#A80036" points="111.98,74,102.98,70,106.98,74,102.98,78,111.98,74" style="stroke:#A80036;stroke-width:1.0;"/><!--MD5=[abf99067916ba91e0c5f1a0c2b0c0c10]
link push to actions--><path d="M166.16,74 C176.05,74 185.93,74 195.82,74 " fill="none" id="push-to-actions" style="stroke:#A80036;stroke-width:1.0;"/><polygon fill="#A80036" points="200.99,74,191.99,70,195.99,74,191.99,78,200.99,74" style="stroke:#A80036;stroke-width:1.0;"/><!--MD5=[117f1a6265ae88cf562673f090a4720f]
link actions to deploy--><path d="M261,103.08 C261,119.49 261,140.29 261,157.54 " fill="none" id="actions-to-deploy" style="stroke:#A80036;stroke-width:1.0;"/><polygon fill="#A80036" points="261,162.78,265,153.78,261,157.78,257,153.78,261,162.78" style="stroke:#A80036;stroke-width:1.0;"/><!--MD5=[45b06f35ef3af0e13541b8e6503484ce]
link deploy to pages--><path d="M260.78,221.31 C260.6,244.38 260.35,276.58 260.18,298.31 " fill="none" id="deploy-to-pages" style="stroke:#A80036;stroke-width:1.0;"/><polygon fill="#A80036" points="260.14,303.32,264.1914,294.343,260.1686,298.3201,256.1915,294.2973,260.14,303.32" style="stroke:#A80036;stroke-width:1.0;"/><!--MD5=[b5ffb795c44007b68428c884d1aa586b]
reverse link bezoeker to pages--><path d="M174.2,323 C184.19,323 194.19,323 204.18,323 " fill="none" id="bezoeker-backto-pages" style="stroke:#A80036;stroke-width:1.0;"/><polygon fill="#A80036" points="168.98,323,177.98,327,173.98,323,177.98,319,168.98,323" style="stroke:#A80036;stroke-width:1.0;"/><!--MD5=[c915d0965df0b1f8c2dab2ae256615cc]
@startuml

rectangle "git\ncommit" as commit
rectangle "git\npush" as push
actor bezoeker

rectangle "GitHub" #LightGreen {
rectangle "GitHub Actions\n(Hugo build)" as actions
rectangle "GitHub Actions\n(deploy)" as deploy 
collections "GitHub Pages" as pages
}

commit -right-> push
push -right-> actions
actions -down-> deploy
deploy -down-> pages 
pages -left-> bezoeker 
@enduml

PlantUML version 1.2021.00(Sun Jan 10 11:25:05 CET 2021)
(MIT source distribution)
Java Runtime: OpenJDK Runtime Environment
JVM: OpenJDK 64-Bit Server VM
Default Encoding: UTF-8
Language: en
Country: US
--></g></svg>